<svg xmlns="http://www.w3.org/2000/svg" fill="none" viewBox="0 0 15 17"><path fill="#1D2E5B" d="M10.9582 13.9656a2.599 2.599 0 0 1-2.4005-1.605 2.6016 2.6016 0 0 1 .5632-2.8334 2.5978 2.5978 0 0 1 2.8316-.5637c.4748.1968.8806.53 1.1661.9576.2855.4276.4379.9303.4379 1.4445a2.6041 2.6041 0 0 1-.7619 1.8377 2.6002 2.6002 0 0 1-1.8364.7623Zm0-4.2956a1.694 1.694 0 0 0-1.5656 1.0467 1.6968 1.6968 0 0 0 .3673 1.8479 1.6938 1.6938 0 0 0 2.6072-.2569 1.6966 1.6966 0 0 0 .2856-.9421 1.698 1.698 0 0 0-.4969-1.1984 1.696 1.696 0 0 0-1.1976-.4972ZM3.5021 13.9656a2.599 2.599 0 0 1-2.4005-1.605 2.6016 2.6016 0 0 1 .5632-2.8334 2.5967 2.5967 0 0 1 2.8316-.5636c.4748.1967.8806.53 1.1661.9575.2855.4276.438.9303.438 1.4445a2.6038 2.6038 0 0 1-.762 1.8377 2.6001 2.6001 0 0 1-1.8364.7623Zm0-4.2956c-.3351 0-.6628.0994-.9414.2857a1.6958 1.6958 0 0 0-.7206 1.7407 1.6955 1.6955 0 0 0 1.3314 1.3323 1.6941 1.6941 0 0 0 1.7396-.721 1.6966 1.6966 0 0 0 .2856-.9421 1.6982 1.6982 0 0 0-.497-1.1984A1.696 1.696 0 0 0 3.5022 9.67ZM9.0377 4.25a.785.785 0 0 0 .347-.0802c.11-.0534.2099-.132.294-.231a1.0884 1.0884 0 0 0 .1956-.3464 1.223 1.223 0 0 0 .0671-.4082 1.2106 1.2106 0 0 0-.0656-.4064 1.0773 1.0773 0 0 0-.1943-.3448.8963.8963 0 0 0-.2927-.2295.7762.7762 0 0 0-.3455-.0785.7877.7877 0 0 0-.346.0796.9082.9082 0 0 0-.2939.2293 1.0898 1.0898 0 0 0-.1968.344 1.2258 1.2258 0 0 0-.0699.4063 1.227 1.227 0 0 0 .0677.4069c.0451.129.1114.2464.195.3454a.9106.9106 0 0 0 .2926.2314.7885.7885 0 0 0 .3457.0821Z"/><path fill="#1D2E5B" d="M10.3805 6.375H9.1446a.1005.1005 0 0 1-.0576-.0185.1259.1259 0 0 1-.0415-.0505L8.149 4.3746c-.0632-.1436-.1542-.2676-.2657-.362-.1115-.0946-.2404-.1569-.3762-.182a.7513.7513 0 0 0-.4055.0377c-.1307.0498-.2497.135-.3472.249l-1.973 2.3375c-.1658.1989-.2599.4653-.2627.7437 0 .5777.3559.7836.5225.8998.8049.5452 1.3717.944 1.6827 1.1654a.1257.1257 0 0 1 .0397.0483.1513.1513 0 0 1 .0145.065v2.295c0 .2858.187.5312.4301.5455a.3912.3912 0 0 0 .1794-.0327.4494.4494 0 0 0 .1539-.1131.5402.5402 0 0 0 .1037-.1752.612.612 0 0 0 .0366-.2089V8.8321a.6083.6083 0 0 0-.0496-.2425.517.517 0 0 0-.1384-.1891l-1.045-.8836a.1275.1275 0 0 1-.0321-.0416.1549.1549 0 0 1-.009-.1094.1388.1388 0 0 1 .0247-.0482l1.1862-1.4872a.1134.1134 0 0 1 .044-.0341.0972.0972 0 0 1 .0523-.007.1032.1032 0 0 1 .0494.0217.1273.1273 0 0 1 .0356.0457l.6162 1.3075c.0392.0829.0965.152.166.2a.4018.4018 0 0 0 .2294.0733h1.5816a.3946.3946 0 0 0 .1781-.0428.459.459 0 0 0 .1494-.1218.5536.5536 0 0 0 .0965-.181.62.62 0 0 0 .0279-.2112c-.0119-.286-.2214-.5057-.4646-.5057Z"/></svg>