<svg xmlns="http://www.w3.org/2000/svg" fill="none" viewBox="0 0 17 16"><g clip-path="url(#a)"><path fill="#1D2E5B" d="M4.4557 10.8571c0-.3154-.136-.5848-.4082-.808-.2721-.2232-.6005-.3348-.9852-.3348-.3846 0-.713.1116-.9851.3348-.2721.2232-.4082.4926-.4082.808 0 .3155.136.5849.4082.8081.2721.2232.6005.3348.9851.3348.3847 0 .713-.1116.9852-.3348.2721-.2232.4082-.4926.4082-.8081Zm11.1469 0c0-.3154-.1361-.5848-.4082-.808-.2722-.2232-.6006-.3348-.9852-.3348-.3846 0-.713.1116-.9851.3348-.2722.2232-.4082.4926-.4082.808 0 .3155.136.5849.4082.8081.2721.2232.6005.3348.9851.3348.3846 0 .713-.1116.9852-.3348.2721-.2232.4082-.4926.4082-.8081Zm-.5008-3.5357-.7837-3.4285c-.0363-.137-.1179-.2485-.2449-.3349-.127-.0863-.274-.1294-.4409-.1294h-9.993c-.167 0-.3139.0431-.4409.1294-.127.0864-.2086.198-.2449.3349l-.7838 3.4285c-.0363.1786.0145.3363.1524.4732.138.137.3157.2054.5334.2054H14.416c.2178 0 .3956-.0685.5334-.2054.1379-.1369.1887-.2946.1524-.4732Zm-2.4601-5.4643c0-.119-.0508-.2202-.1524-.3035-.1016-.0834-.225-.125-.3701-.125H5.1524c-.1452 0-.2685.0416-.3701.125-.1016.0833-.1524.1845-.1524.3035s.0508.2203.1524.3036c.1016.0834.225.125.37.125h6.9669c.1451 0 .2685-.0416.3701-.125.1016-.0833.1524-.1845.1524-.3036Zm4.3542 6.4733v5.3839h-1.3933v1.1428c0 .3155-.1361.5849-.4082.8081-.2722.2232-.6006.3348-.9852.3348-.3846 0-.713-.1116-.9851-.3348-.2722-.2232-.4082-.4926-.4082-.8081v-1.1428H4.4557v1.1428c0 .3155-.136.5849-.4082.8081-.2721.2232-.6005.3348-.9852.3348-.3846 0-.713-.1116-.9851-.3348-.2721-.2232-.4082-.4926-.4082-.8081v-1.1428H.2756v-5.384c0-.6666.0907-1.3303.2722-1.991L1.669 2.2857c.0653-.4643.419-.872 1.0613-1.2232C3.3726.7113 4.2072.4465 5.234.2679 6.261.0893 7.3948 0 8.6358 0s2.3749.0893 3.4017.2679c1.0269.1785 1.8615.4434 2.5037.7946.6423.3512.9961.759 1.0614 1.2232l1.143 4.0536c.1669.6071.2503 1.2708.2503 1.991Z"/></g><defs><clipPath id="a"><path fill="#fff" d="M.2727 0H17v16H.2727z"/></clipPath></defs></svg>