<svg xmlns="http://www.w3.org/2000/svg" fill="none" viewBox="0 0 12 13"><g clip-path="url(#a)"><path fill="#192144" fill-rule="evenodd" d="m6 5.665.67-1.41c.167-.349.456-.85.865-1.256.401-.4.883-.671 1.465-.671 1.257 0 2.25 1.044 2.25 2.3 0 .954-.415 1.627-1.401 2.655-.253.263-.54.547-.86.86-.83.82-1.864 1.84-2.989 3.202-1.125-1.363-2.159-2.382-2.99-3.201a44.458 44.458 0 0 1-.859-.861C1.166 6.255.75 5.582.75 4.628c0-1.256.993-2.3 2.25-2.3.582 0 1.064.272 1.465.67.41.407.698.908.865 1.257L6 5.665Zm.294 6.532A.387.387 0 0 1 6 12.34a.369.369 0 0 1-.294-.143c-1.2-1.499-2.288-2.57-3.182-3.451C.975 7.218 0 6.258 0 4.628 0 2.923 1.343 1.54 3 1.54c1.2 0 2.04.827 2.553 1.582.195.287.343.564.447.781.13-.272.28-.533.447-.781C6.961 2.366 7.8 1.54 9 1.54c1.658 0 3 1.383 3 3.088 0 1.63-.975 2.59-2.524 4.118-.895.882-1.981 1.953-3.182 3.45Z" clip-rule="evenodd" opacity=".5"/></g><defs><clipPath id="a"><path fill="#fff" d="M0 .79h12v12H0z"/></clipPath></defs></svg>