<svg xmlns="http://www.w3.org/2000/svg" width="32" height="32" fill="none"><circle cx="15.636" cy="15.636" r="15.636" fill="#fff"/><g clip-path="url(#a)"><path fill="#1D2E5B" d="M20.753 8.858c-.586.132-1.174.264-1.392.625l-1.693 3.18-9.087 2.038-.368 1.017 6.954.62-1.18 2.754-2.637.591-.662 1.082 1.902.195.217.885c.097.314.438.523.73.458l.879-.197 1.019 1.639.662-1.082-.651-2.655 1.91-2.296 3.643 6.031.734-.786-2.242-9.147 2.06-2.95c.22-.363.076-.952-.069-1.544-.072-.293-.438-.523-.73-.458Z"/></g><defs><clipPath id="a"><path fill="#fff" d="M7.273 8H24v16H7.273z"/></clipPath></defs></svg>