<svg xmlns="http://www.w3.org/2000/svg" fill="none" viewBox="0 0 14 16"><g clip-path="url(#a)"><path fill="#1D2E5B" d="M11.345.802c-.493.133-.988.266-1.175.615L8.714 4.489l-7.656 2.06-.32.98 5.836.515-1.02 2.655-2.222.598-.568 1.047 1.597.165.173.846c.078.3.362.497.608.431l.74-.199.84 1.561.567-1.046-.52-2.54L8.4 9.337l2.996 5.745.626-.763-1.787-8.751 1.76-2.855c.19-.35.075-.914-.04-1.48-.058-.28-.363-.497-.609-.431Z"/></g><defs><clipPath id="a"><path fill="#fff" d="M0 0h14v16H0z"/></clipPath></defs></svg>