<svg xmlns="http://www.w3.org/2000/svg" fill="none" viewBox="0 0 32 32"><circle cx="15.636" cy="15.636" r="15.636" fill="#fff"/><path fill="#1D2E5B" d="M19.121 12c.77 0 1.394-.597 1.394-1.333 0-.737-.624-1.334-1.394-1.334-.77 0-1.394.597-1.394 1.334 0 .736.624 1.333 1.394 1.333ZM18.269 15.313c.16.228.39.403.657.502.268.1.561.117.84.051l2.31-.553-.336-1.293-2.31.553-.962-1.378a1.405 1.405 0 0 0-.887-.57l-2.68-.513a1.45 1.45 0 0 0-.886.11c-.275.128-.498.34-.634.601l-1.156 2.211 1.247.597 1.156-2.212 1.37.263-3.544 5.651h-3.09v1.334h3.09c.486 0 .944-.248 1.195-.648l1.337-2.13 3.603.689 1.265 3.633 1.322-.422-1.265-3.632a1.336 1.336 0 0 0-.4-.578 1.425 1.425 0 0 0-.65-.309l-2.118-.405 1.235-1.969.29.417Z"/></svg>