<svg xmlns="http://www.w3.org/2000/svg" fill="none" viewBox="0 0 17 16"><path fill="#1D2E5B" d="M12.1212 4c.7699 0 1.394-.597 1.394-1.3333 0-.7364-.6241-1.3334-1.394-1.3334-.7698 0-1.3939.597-1.3939 1.3334 0 .7364.6241 1.3333 1.3939 1.3333ZM11.2687 7.3126c.16.2281.3895.4035.6573.5025a1.459 1.459 0 0 0 .8398.0509l2.3111-.5527-.3366-1.2933-2.3111.5527-.9612-1.378c-.2053-.2943-.524-.499-.8865-.5694L7.9009 4.112a1.4496 1.4496 0 0 0-.886.1094c-.2747.1286-.4975.3401-.634.602L5.2253 7.034l1.2469.5967 1.1555-2.2114 1.371.2627-3.5448 5.6513H2.3635v1.3333H5.454c.4865 0 .9444-.248 1.1953-.6473L7.986 9.8887l3.6026.6893 1.2657 3.6326 1.3215-.422-1.265-3.632a1.3356 1.3356 0 0 0-.4005-.578 1.4245 1.4245 0 0 0-.6492-.3086l-2.118-.4047 1.235-1.9693.2906.4166Z"/></svg>