<svg xmlns="http://www.w3.org/2000/svg" fill="none" viewBox="0 0 33 33"><circle cx="16.916" cy="16.117" r="16" fill="#EDEFF6"/><path fill="#1D2E5B" d="M20.958 21.966a2.597 2.597 0 0 1-2.548-3.108 2.6 2.6 0 0 1 3.543-1.895 2.6 2.6 0 0 1-.995 5.003Zm0-4.296a1.694 1.694 0 0 0-1.198 2.895 1.694 1.694 0 1 0 2.396-2.398 1.696 1.696 0 0 0-1.198-.497ZM13.502 21.966a2.597 2.597 0 0 1-2.548-3.108 2.602 2.602 0 0 1 2.041-2.042 2.597 2.597 0 0 1 2.344 4.387 2.6 2.6 0 0 1-1.837.763Zm0-4.296a1.694 1.694 0 0 0-1.662 2.026 1.696 1.696 0 1 0 1.662-2.026ZM19.038 12.25a.784.784 0 0 0 .347-.08.904.904 0 0 0 .294-.231c.084-.1.15-.217.195-.347.045-.13.068-.268.067-.408a1.212 1.212 0 0 0-.065-.406 1.077 1.077 0 0 0-.195-.345.896.896 0 0 0-.292-.23.788.788 0 0 0-.692.001.908.908 0 0 0-.294.23 1.089 1.089 0 0 0-.196.344 1.225 1.225 0 0 0-.003.813c.046.13.112.247.195.346a.91.91 0 0 0 .293.23c.11.055.227.083.346.083Z"/><path fill="#1D2E5B" d="M20.38 14.375h-1.235a.1.1 0 0 1-.058-.018.126.126 0 0 1-.041-.051l-.897-1.931a1.002 1.002 0 0 0-.266-.363.81.81 0 0 0-.376-.181.75.75 0 0 0-.405.037.865.865 0 0 0-.348.25l-1.973 2.337c-.165.199-.26.465-.262.743 0 .578.356.784.522.9.805.546 1.372.944 1.683 1.166.017.012.03.028.04.048.01.02.014.042.014.065v2.295c0 .286.187.531.43.546a.391.391 0 0 0 .18-.033.45.45 0 0 0 .154-.113c.044-.05.08-.11.103-.175a.613.613 0 0 0 .037-.21v-2.855a.607.607 0 0 0-.05-.242.517.517 0 0 0-.138-.19l-1.045-.883a.127.127 0 0 1-.032-.042.148.148 0 0 1-.01-.11.138.138 0 0 1 .026-.047l1.186-1.487a.112.112 0 0 1 .044-.035.096.096 0 0 1 .052-.007c.018.003.035.01.05.022a.127.127 0 0 1 .035.046l.616 1.307a.5.5 0 0 0 .166.2c.07.048.149.074.23.074h1.581a.394.394 0 0 0 .178-.043.458.458 0 0 0 .15-.122.552.552 0 0 0 .096-.181.62.62 0 0 0 .028-.211c-.012-.286-.221-.506-.464-.506Z"/></svg>