<svg xmlns="http://www.w3.org/2000/svg" fill="none" viewBox="0 0 32 32"><circle cx="15.636" cy="15.636" r="15.636" fill="#fff"/><g clip-path="url(#a)"><path fill="#1D2E5B" d="M11.456 18.857c0-.315-.136-.585-.409-.808a1.503 1.503 0 0 0-.985-.335c-.384 0-.713.112-.985.335-.272.223-.408.493-.408.808 0 .316.136.585.408.808.272.223.6.335.985.335s.713-.112.986-.335c.272-.223.408-.492.408-.808Zm11.147 0c0-.315-.137-.585-.409-.808a1.504 1.504 0 0 0-.985-.335c-.384 0-.713.112-.985.335-.272.223-.408.493-.408.808 0 .316.136.585.408.808.272.223.6.335.985.335s.713-.112.985-.335c.273-.223.409-.492.409-.808Zm-.501-3.536-.784-3.428a.576.576 0 0 0-.245-.335.766.766 0 0 0-.44-.13h-9.994a.766.766 0 0 0-.44.13.576.576 0 0 0-.245.335L9.17 15.32a.495.495 0 0 0 .152.474.725.725 0 0 0 .534.205h11.56a.724.724 0 0 0 .533-.205.495.495 0 0 0 .153-.474Zm-2.46-5.464a.38.38 0 0 0-.153-.303.565.565 0 0 0-.37-.125h-6.967a.565.565 0 0 0-.37.125.38.38 0 0 0-.152.303c0 .12.05.22.152.304a.565.565 0 0 0 .37.125h6.967a.565.565 0 0 0 .37-.125.38.38 0 0 0 .153-.304Zm4.354 6.473v5.384h-1.393v1.143c0 .316-.137.585-.409.808-.272.223-.6.335-.985.335-.384 0-.713-.112-.985-.335-.272-.223-.408-.492-.408-.808v-1.143h-8.36v1.143c0 .316-.136.585-.409.808-.272.223-.6.335-.985.335-.384 0-.713-.112-.985-.335-.272-.223-.408-.492-.408-.808v-1.143H7.276V16.33c0-.666.09-1.33.272-1.99l1.121-4.054c.065-.465.42-.872 1.061-1.223.643-.352 1.477-.617 2.504-.795A19.92 19.92 0 0 1 15.636 8c1.24 0 2.375.09 3.402.268 1.026.178 1.861.443 2.503.794.642.352.996.76 1.062 1.224l1.143 4.053c.167.607.25 1.271.25 1.991Z"/></g><defs><clipPath id="a"><path fill="#fff" d="M7.273 8H24v16H7.273z"/></clipPath></defs></svg>